<svg width="200" height="200" viewBox="0 0 200 200" fill="none" xmlns="http://www.w3.org/2000/svg">
<rect width="200" height="200" rx="10" fill="#00813B"/>
<path d="M83.6721 80.2749C83.6721 72.4328 90.0294 66.0755 97.8715 66.0755V66.0755C105.714 66.0755 112.071 72.4328 112.071 80.2749V112.864C112.071 117.997 111.132 123.073 110.03 128.086C107.435 139.888 105.518 161.526 126.344 161.526C133.344 161.526 136.764 160.692 137.351 159.635C150.595 135.776 83.6721 133.006 83.6721 105.717V80.2749Z" fill="white"/>
<path d="M105.664 68.1583C107.293 69.4472 106.382 72.068 104.304 72.0674V72.0674L73.7366 72.0586L52.4349 72.0525C46.2535 72.0508 41.243 67.0403 41.2412 60.859V60.859C41.2394 54.6726 46.2549 49.6571 52.4413 49.6588L78.4045 49.6663C80.9255 49.667 83.3724 50.5184 85.3493 52.0828L105.664 68.1583Z" fill="white"/>
<path d="M157.799 51.7186C157.799 51.7186 153.456 55.6909 137.687 51.0776C121.918 46.4643 116.386 64.3129 116.386 64.3129C140.458 72.549 147.269 60.684 147.269 60.684C141.612 71.0353 129.488 69.511 119.269 67.6473C115.383 66.9386 112.569 67.0975 110.623 69.7526C115.902 66.2294 129.536 74.7599 140.988 71.7732C153.647 68.4713 157.799 51.7186 157.799 51.7186Z" fill="white"/>
</svg>
