<svg width="105" height="110" viewBox="0 0 105 110" fill="none" xmlns="http://www.w3.org/2000/svg">
<path d="M38 37.6462C38 30.6627 43.6612 25.0015 50.6447 25.0015C57.6281 25.0015 63.2894 30.6627 63.2894 37.6462V66.4999C63.2894 71.1815 62.4297 75.8141 61.4356 80.3889C59.1441 90.934 57.5513 110.002 76 110.002C82.2337 110.002 85.2789 109.259 85.8013 108.318C97.5955 87.0706 38 84.6034 38 60.3025V37.6462Z" fill="white"/>
<path d="M57.5843 26.8562C59.0349 28.0041 58.2229 30.3379 56.3731 30.3373L29.1522 30.3296L10.1828 30.3241C4.67831 30.3225 0.216398 25.8607 0.214777 20.3561C0.213154 14.8471 4.6795 10.3807 10.1885 10.3823L33.3091 10.3889C35.554 10.3896 37.733 11.1478 39.4935 12.5408L57.5843 26.8562Z" fill="white"/>
<path d="M104.011 12.2165C104.011 12.2165 100.143 15.7539 86.1005 11.6457C72.0579 7.53753 67.132 23.4319 67.132 23.4319C88.5688 30.7662 94.6335 20.2003 94.6335 20.2003C89.5963 29.4183 78.7995 28.0608 69.6997 26.4012C66.2391 25.7701 63.7333 25.9116 62 28.276C66.7014 25.1385 78.8425 32.7351 89.0399 30.0754C100.313 27.135 104.011 12.2165 104.011 12.2165Z" fill="white"/>
</svg>
